{
    "asset" : {
        "generator" : "Khronos glTF Blender I/O v1.8.19",
        "version" : "2.0"
    },
    "scene" : 0,
    "scenes" : [
        {
            "name" : "Scene",
            "nodes" : [
                0
            ]
        }
    ],
    "nodes" : [
        {
            "mesh" : 0,
            "name" : "Text",
            "scale" : [
                0.017351578921079636,
                0.017351578921079636,
                0.017351578921079636
            ],
            "translation" : [
                0,
                0.00773959094658494,
                0
            ]
        }
    ],
    "materials" : [
        {
            "doubleSided" : true,
            "name" : "Material.002",
            "pbrMetallicRoughness" : {
                "baseColorFactor" : [
                    0.8000000715255737,
                    0.21954260766506195,
                    0.5387047529220581,
                    1
                ],
                "metallicFactor" : 0,
                "roughnessFactor" : 0.19736841320991516
            }
        },
        {
            "doubleSided" : true,
            "name" : "Material.003",
            "pbrMetallicRoughness" : {
                "baseColorTexture" : {
                    "index" : 0
                },
                "metallicFactor" : 0,
                "roughnessFactor" : 0.2818181812763214
            }
        },
        {
            "doubleSided" : true,
            "name" : "Material.005",
            "pbrMetallicRoughness" : {
                "metallicFactor" : 0,
                "roughnessFactor" : 0.7872726917266846
            }
        },
        {
            "doubleSided" : true,
            "name" : "Material",
            "pbrMetallicRoughness" : {
                "baseColorFactor" : [
                    0.032347630709409714,
                    0.312267929315567,
                    0.8000000715255737,
                    1
                ],
                "metallicFactor" : 0,
                "roughnessFactor" : 0.16906476020812988
            }
        }
    ],
    "meshes" : [
        {
            "name" : "Text.001",
            "primitives" : [
                {
                    "attributes" : {
                        "POSITION" : 0,
                        "NORMAL" : 1,
                        "TEXCOORD_0" : 2
                    },
                    "indices" : 3,
                    "material" : 0
                },
                {
                    "attributes" : {
                        "POSITION" : 4,
                        "NORMAL" : 5,
                        "TEXCOORD_0" : 6
                    },
                    "indices" : 7,
                    "material" : 1
                },
                {
                    "attributes" : {
                        "POSITION" : 8,
                        "NORMAL" : 9,
                        "TEXCOORD_0" : 10
                    },
                    "indices" : 11,
                    "material" : 2
                },
                {
                    "attributes" : {
                        "POSITION" : 12,
                        "NORMAL" : 13,
                        "TEXCOORD_0" : 14
                    },
                    "indices" : 15,
                    "material" : 3
                }
            ]
        }
    ],
    "textures" : [
        {
            "sampler" : 0,
            "source" : 0
        }
    ],
    "images" : [
        {
            "mimeType" : "image/png",
            "name" : "Donut texture",
            "uri" : "Donut%20texture.png"
        }
    ],
    "accessors" : [
        {
            "bufferView" : 0,
            "componentType" : 5126,
            "count" : 105777,
            "max" : [
                4.4817705154418945,
                4.95151424407959,
                0.7675042152404785
            ],
            "min" : [
                -3.9646050930023193,
                -0.23000000417232513,
                -0.7697958946228027
            ],
            "type" : "VEC3"
        },
        {
            "bufferView" : 1,
            "componentType" : 5126,
            "count" : 105777,
            "type" : "VEC3"
        },
        {
            "bufferView" : 2,
            "componentType" : 5126,
            "count" : 105777,
            "type" : "VEC2"
        },
        {
            "bufferView" : 3,
            "componentType" : 5125,
            "count" : 451746,
            "type" : "SCALAR"
        },
        {
            "bufferView" : 4,
            "componentType" : 5126,
            "count" : 22297,
            "max" : [
                -1.1369476318359375,
                3.5741734504699707,
                0.7155702114105225
            ],
            "min" : [
                -2.703700065612793,
                2.297668933868408,
                -0.8473505973815918
            ],
            "type" : "VEC3"
        },
        {
            "bufferView" : 5,
            "componentType" : 5126,
            "count" : 22297,
            "type" : "VEC3"
        },
        {
            "bufferView" : 6,
            "componentType" : 5126,
            "count" : 22297,
            "type" : "VEC2"
        },
        {
            "bufferView" : 7,
            "componentType" : 5123,
            "count" : 129024,
            "type" : "SCALAR"
        },
        {
            "bufferView" : 8,
            "componentType" : 5126,
            "count" : 67368,
            "max" : [
                -1.1104450225830078,
                3.643904685974121,
                0.7582999467849731
            ],
            "min" : [
                -2.6323554515838623,
                2.577094793319702,
                -0.5893213152885437
            ],
            "type" : "VEC3"
        },
        {
            "bufferView" : 9,
            "componentType" : 5126,
            "count" : 67368,
            "type" : "VEC3"
        },
        {
            "bufferView" : 10,
            "componentType" : 5126,
            "count" : 67368,
            "type" : "VEC2"
        },
        {
            "bufferView" : 11,
            "componentType" : 5125,
            "count" : 295488,
            "type" : "SCALAR"
        },
        {
            "bufferView" : 12,
            "componentType" : 5126,
            "count" : 4983,
            "max" : [
                -1.2740027904510498,
                3.628300666809082,
                0.7449691295623779
            ],
            "min" : [
                -2.5297350883483887,
                2.7235593795776367,
                -0.46416154503822327
            ],
            "type" : "VEC3"
        },
        {
            "bufferView" : 13,
            "componentType" : 5126,
            "count" : 4983,
            "type" : "VEC3"
        },
        {
            "bufferView" : 14,
            "componentType" : 5126,
            "count" : 4983,
            "type" : "VEC2"
        },
        {
            "bufferView" : 15,
            "componentType" : 5123,
            "count" : 22176,
            "type" : "SCALAR"
        }
    ],
    "bufferViews" : [
        {
            "buffer" : 0,
            "byteLength" : 1269324,
            "byteOffset" : 0
        },
        {
            "buffer" : 0,
            "byteLength" : 1269324,
            "byteOffset" : 1269324
        },
        {
            "buffer" : 0,
            "byteLength" : 846216,
            "byteOffset" : 2538648
        },
        {
            "buffer" : 0,
            "byteLength" : 1806984,
            "byteOffset" : 3384864
        },
        {
            "buffer" : 0,
            "byteLength" : 267564,
            "byteOffset" : 5191848
        },
        {
            "buffer" : 0,
            "byteLength" : 267564,
            "byteOffset" : 5459412
        },
        {
            "buffer" : 0,
            "byteLength" : 178376,
            "byteOffset" : 5726976
        },
        {
            "buffer" : 0,
            "byteLength" : 258048,
            "byteOffset" : 5905352
        },
        {
            "buffer" : 0,
            "byteLength" : 808416,
            "byteOffset" : 6163400
        },
        {
            "buffer" : 0,
            "byteLength" : 808416,
            "byteOffset" : 6971816
        },
        {
            "buffer" : 0,
            "byteLength" : 538944,
            "byteOffset" : 7780232
        },
        {
            "buffer" : 0,
            "byteLength" : 1181952,
            "byteOffset" : 8319176
        },
        {
            "buffer" : 0,
            "byteLength" : 59796,
            "byteOffset" : 9501128
        },
        {
            "buffer" : 0,
            "byteLength" : 59796,
            "byteOffset" : 9560924
        },
        {
            "buffer" : 0,
            "byteLength" : 39864,
            "byteOffset" : 9620720
        },
        {
            "buffer" : 0,
            "byteLength" : 44352,
            "byteOffset" : 9660584
        }
    ],
    "samplers" : [
        {
            "magFilter" : 9729,
            "minFilter" : 9987
        }
    ],
    "buffers" : [
        {
            "byteLength" : 9704936,
            "uri" : "logo_donut.bin"
        }
    ]
}
